<?xml version="1.0" encoding="utf-8"?>
<!-- Generator: Adobe Illustrator 27.1.1, SVG Export Plug-In . SVG Version: 6.00 Build 0)  -->
<!DOCTYPE svg PUBLIC "-//W3C//DTD SVG 1.1//EN" "http://www.w3.org/Graphics/SVG/1.1/DTD/svg11.dtd" [
	<!ENTITY ns_extend "http://ns.adobe.com/Extensibility/1.0/">
	<!ENTITY ns_ai "http://ns.adobe.com/AdobeIllustrator/10.0/">
	<!ENTITY ns_graphs "http://ns.adobe.com/Graphs/1.0/">
	<!ENTITY ns_vars "http://ns.adobe.com/Variables/1.0/">
	<!ENTITY ns_imrep "http://ns.adobe.com/ImageReplacement/1.0/">
	<!ENTITY ns_sfw "http://ns.adobe.com/SaveForWeb/1.0/">
	<!ENTITY ns_custom "http://ns.adobe.com/GenericCustomNamespace/1.0/">
	<!ENTITY ns_adobe_xpath "http://ns.adobe.com/XPath/1.0/">
]>
<svg version="1.1" id="Capa_1" xmlns:x="&ns_extend;" xmlns:i="&ns_ai;" xmlns:graph="&ns_graphs;"
	 xmlns="http://www.w3.org/2000/svg" xmlns:xlink="http://www.w3.org/1999/xlink" x="0px" y="0px" viewBox="0 0 30.2 30.2"
	 style="enable-background:new 0 0 30.2 30.2;" xml:space="preserve">
<style type="text/css">
	.st0{fill:#C9D1D9;}
</style>
<metadata>
	<sfw  xmlns="&ns_sfw;">
		<slices></slices>
		<sliceSourceBounds  bottomLeftOrigin="true" height="30.2" width="30.2" x="0" y="0"></sliceSourceBounds>
	</sfw>
</metadata>
<g>
	<path class="st0" d="M20.2,3.5c-4.6-4.6-12.1-4.6-16.7,0c-4.6,4.6-4.6,12.1,0,16.7c4.1,4.1,10.5,4.5,15.1,1.3
		c0.1,0.5,0.3,0.9,0.7,1.3l6.7,6.7c1,1,2.6,1,3.5,0c1-1,1-2.6,0-3.5l-6.7-6.7c-0.4-0.4-0.8-0.6-1.3-0.7C24.7,14,24.3,7.6,20.2,3.5z
		 M18.1,18.1c-3.4,3.4-9,3.4-12.5,0c-3.4-3.4-3.4-9,0-12.5c3.4-3.4,9-3.4,12.5,0C21.5,9,21.5,14.6,18.1,18.1z"/>
</g>
</svg>
